<svg width="167" height="41" viewBox="0 0 167 41" fill="none" xmlns="http://www.w3.org/2000/svg">
<path d="M34.4997 10.71H33.3597V2.60005H31.1797V1.55005H36.6697V2.60005H34.4997V10.71Z" fill="#003874"/>
<path d="M43.0896 5.24005V1.55005H44.2296V10.71H43.0896V6.31005H38.7396V10.71H37.5996V1.55005H38.7396V5.24005H43.0896Z" fill="#003874"/>
<path d="M46.0098 1.55005H50.9198V2.60005H47.1498V5.16005H50.8098V6.20005H47.1498V9.66005H50.9198V10.71H46.0098V1.55005Z" fill="#003874"/>
<path d="M61.4902 5.24005V1.55005H62.6302V10.71H61.4902V6.31005H57.1302V10.71H55.9902V1.55005H57.1302V5.24005H61.4902Z" fill="#003874"/>
<path d="M72.21 6.13011C72.21 4.12011 70.7 2.43011 68.56 2.43011C66.42 2.43011 64.91 4.12011 64.91 6.13011C64.91 8.14011 66.58 9.83011 68.56 9.83011C70.54 9.83011 72.21 8.22011 72.21 6.13011ZM73.35 6.13011C73.35 8.85011 71.2 10.9001 68.55 10.9001C65.9 10.9001 63.75 8.85011 63.75 6.13011C63.75 3.41011 65.92 1.36011 68.55 1.36011C71.18 1.36011 73.35 3.51011 73.35 6.13011" fill="#003874"/>
<path d="M74.4609 1.12012L81.3309 8.31012V1.55012H82.4809V11.0801L75.6009 3.88012V10.7101H74.4609V1.12012Z" fill="#003874"/>
<path d="M92.5596 6.09009V6.45009C92.5596 8.96009 90.7896 10.8901 88.2296 10.8901C85.6696 10.8901 83.5996 8.68009 83.5996 6.14009C83.5996 3.60009 85.7096 1.34009 88.3496 1.34009C89.7696 1.34009 91.1796 1.98009 92.0796 3.11009L91.2796 3.88009C90.6196 2.98009 89.5196 2.39009 88.3996 2.39009C86.3496 2.39009 84.7496 4.05009 84.7496 6.10009C84.7496 8.02009 86.3296 9.84009 88.3096 9.84009C89.7296 9.84009 91.2596 8.61009 91.3096 7.12009H88.9396V6.08009H92.5696L92.5596 6.09009Z" fill="#003874"/>
<path d="M102.469 1.55005H103.959L99.8494 5.67005L104.039 10.71H102.489L99.0495 6.45005L98.5894 6.88005V10.71H97.4395V1.55005H98.5894V5.52005L102.469 1.55005Z" fill="#003874"/>
<path d="M112.661 6.13011C112.661 4.12011 111.151 2.43011 109.011 2.43011C106.871 2.43011 105.351 4.12011 105.351 6.13011C105.351 8.14011 107.031 9.83011 109.011 9.83011C110.991 9.83011 112.661 8.22011 112.661 6.13011ZM113.801 6.13011C113.801 8.85011 111.651 10.9001 109.011 10.9001C106.371 10.9001 104.211 8.85011 104.211 6.13011C104.211 3.41011 106.381 1.36011 109.011 1.36011C111.641 1.36011 113.801 3.51011 113.801 6.13011" fill="#003874"/>
<path d="M114.91 1.12012L121.78 8.31012V1.55012H122.93V11.0801L116.05 3.88012V10.7101H114.91V1.12012Z" fill="#003874"/>
<path d="M133.011 6.09009V6.45009C133.011 8.96009 131.241 10.8901 128.681 10.8901C126.121 10.8901 124.051 8.68009 124.051 6.14009C124.051 3.60009 126.161 1.34009 128.801 1.34009C130.221 1.34009 131.631 1.98009 132.531 3.11009L131.731 3.88009C131.071 2.98009 129.971 2.39009 128.851 2.39009C126.801 2.39009 125.201 4.05009 125.201 6.10009C125.201 8.02009 126.781 9.84009 128.761 9.84009C130.181 9.84009 131.711 8.61009 131.761 7.12009H129.391V6.08009H133.021L133.011 6.09009Z" fill="#003874"/>
<path d="M33.0209 16.1201V21.5201C33.0209 23.0101 33.4709 24.4001 35.2309 24.4001C36.9909 24.4001 37.4409 23.0201 37.4409 21.5201V16.1201H38.5809V21.9101C38.5809 23.9201 37.3309 25.4701 35.2309 25.4701C33.1309 25.4701 31.8809 23.9301 31.8809 21.9101V16.1201H33.0209V16.1201Z" fill="#003874"/>
<path d="M40.1699 15.6799L47.0399 22.8799V16.1199H48.1799V25.6499L41.3099 18.4499V25.2699H40.1699V15.6799Z" fill="#003874"/>
<path d="M51.0306 16.1201H49.8906V25.2701H51.0306V16.1201Z" fill="#003874"/>
<path d="M55.8902 22.8901L58.6102 16.1201H59.8602L55.8902 25.7601L51.9102 16.1201H53.1602L55.8902 22.8901Z" fill="#003874"/>
<path d="M60.7598 16.1201H65.6698V17.1601H61.8998V19.7201H65.5598V20.7701H61.8998V24.2301H65.6698V25.2701H60.7598V16.1201Z" fill="#003874"/>
<path d="M68.3509 20.4501H68.7109C69.8809 20.4501 71.1409 20.2301 71.1409 18.7701C71.1409 17.3101 69.7809 17.1301 68.6509 17.1301H68.3509V20.4501V20.4501ZM72.9009 25.2701H71.5209L68.8209 21.4001H68.3509V25.2701H67.2109V16.1201H68.5909C69.4009 16.1201 70.2809 16.1301 71.0109 16.5501C71.7709 17.0001 72.2109 17.8601 72.2109 18.7301C72.2109 20.0401 71.3309 21.1301 70.0109 21.2901L72.9009 25.2701V25.2701Z" fill="#003874"/>
<path d="M77.9799 17.8499C77.6399 17.2799 77.1999 16.9899 76.5099 16.9899C75.7799 16.9899 74.9799 17.4899 74.9799 18.2899C74.9799 19.0099 75.6899 19.3799 76.2599 19.5999L76.9099 19.8599C78.2099 20.3699 79.1799 21.0899 79.1799 22.6199C79.1799 24.2799 77.8899 25.4699 76.2499 25.4699C74.7699 25.4699 73.6099 24.3799 73.4199 22.9099L74.5699 22.6699C74.5599 23.6799 75.3599 24.4099 76.3399 24.4099C77.3199 24.4099 78.0299 23.5899 78.0299 22.6299C78.0299 21.6699 77.2399 21.2199 76.4499 20.8899L75.8199 20.6199C74.7799 20.1699 73.8299 19.5699 73.8299 18.2999C73.8299 16.8199 75.1399 15.9299 76.5199 15.9299C77.5399 15.9299 78.3799 16.4299 78.8799 17.3199L77.9699 17.8699L77.9799 17.8499Z" fill="#003874"/>
<path d="M81.6595 16.1201H80.5195V25.2701H81.6595V16.1201Z" fill="#003874"/>
<path d="M85.9604 25.2701H84.8204V17.1601H82.6504V16.1201H88.1304V17.1601H85.9604V25.2701Z" fill="#003874"/>
<path d="M88.2109 16.1201H89.5209L91.7609 20.0301L94.0109 16.1201H95.3209L92.3309 21.2901V25.2701H91.1909V21.2901L88.2109 16.1201Z" fill="#003874"/>
<path d="M107.659 20.6899C107.659 18.6799 106.159 16.9899 104.009 16.9899C101.859 16.9899 100.359 18.6799 100.359 20.6899C100.359 22.6999 102.029 24.3899 104.009 24.3899C105.989 24.3899 107.659 22.7699 107.659 20.6899ZM108.799 20.6899C108.799 23.4099 106.649 25.4599 103.999 25.4599C101.349 25.4599 99.1992 23.4099 99.1992 20.6899C99.1992 17.9699 101.369 15.9199 103.999 15.9199C106.629 15.9199 108.799 18.0699 108.799 20.6899Z" fill="#003874"/>
<path d="M111.16 17.1601V19.7301H114.34V20.7801H111.16V25.2701H110.02V16.1201H114.45V17.1601H111.16Z" fill="#003874"/>
<path d="M123.599 17.8499C123.259 17.2799 122.819 16.9899 122.129 16.9899C121.399 16.9899 120.599 17.4899 120.599 18.2899C120.599 19.0099 121.299 19.3799 121.879 19.5999L122.529 19.8599C123.829 20.3699 124.799 21.0899 124.799 22.6199C124.799 24.2799 123.509 25.4699 121.869 25.4699C120.389 25.4699 119.229 24.3799 119.039 22.9099L120.189 22.6699C120.179 23.6799 120.979 24.4099 121.959 24.4099C122.939 24.4099 123.649 23.5899 123.649 22.6299C123.649 21.6699 122.859 21.2199 122.069 20.8899L121.439 20.6199C120.399 20.1699 119.449 19.5699 119.449 18.2999C119.449 16.8199 120.759 15.9299 122.149 15.9299C123.169 15.9299 124.009 16.4299 124.499 17.3199L123.589 17.8699L123.599 17.8499Z" fill="#003874"/>
<path d="M132.84 17.8699C132.19 17.2899 131.29 16.9699 130.43 16.9699C128.38 16.9699 126.81 18.6799 126.81 20.7099C126.81 22.7399 128.37 24.4199 130.4 24.4199C131.3 24.4199 132.16 24.0799 132.84 23.4699V24.8199C132.14 25.2299 131.24 25.4599 130.44 25.4599C127.83 25.4599 125.67 23.3799 125.67 20.7399C125.67 18.0999 127.84 15.9199 130.54 15.9199C131.34 15.9199 132.16 16.1199 132.85 16.5399V17.8599L132.84 17.8699Z" fill="#003874"/>
<path d="M135.429 16.1201H134.289V25.2701H135.429V16.1201Z" fill="#003874"/>
<path d="M137.26 16.1201H142.18V17.1601H138.41V19.7201H142.07V20.7701H138.41V24.2301H142.18V25.2701H137.26V16.1201Z" fill="#003874"/>
<path d="M143.6 15.6799L150.47 22.8799V16.1199H151.61V25.6499L144.74 18.4499V25.2699H143.6V15.6799Z" fill="#003874"/>
<path d="M160.02 17.8699C159.37 17.2899 158.47 16.9699 157.61 16.9699C155.56 16.9699 153.99 18.6799 153.99 20.7099C153.99 22.7399 155.54 24.4199 157.58 24.4199C158.48 24.4199 159.34 24.0799 160.02 23.4699V24.8199C159.32 25.2299 158.42 25.4599 157.62 25.4599C155.01 25.4599 152.85 23.3799 152.85 20.7399C152.85 18.0999 155.02 15.9199 157.72 15.9199C158.52 15.9199 159.33 16.1199 160.02 16.5399V17.8599V17.8699Z" fill="#003874"/>
<path d="M161.51 16.1201V25.2701H166.43V24.2301H162.65V20.7701H166.32V19.7201H162.65V17.1601H166.43V16.1201H161.51Z" fill="#003874"/>
<path d="M35.4305 32.79L37.0605 36.49H33.8105L35.4405 32.79H35.4305ZM31.0605 39.83H32.2905L33.3305 37.54H37.5305L38.5705 39.83H39.8005L35.4305 30.29L31.0605 39.83Z" fill="#003874"/>
<path d="M40.5801 39.84H41.7201V33.01L48.5901 40.21V30.68H47.4501V37.44L40.5801 30.24V39.84Z" fill="#003874"/>
<path d="M51.3802 38.7899H51.7802C54.1102 38.7899 56.1302 37.9199 56.1302 35.2599C56.1302 32.5999 54.1202 31.7299 51.7802 31.7299H51.3802V38.7899ZM50.2402 30.6799H52.1302C54.9302 30.6799 57.2702 32.1599 57.2702 35.2099C57.2702 38.2599 54.9902 39.8299 52.1002 39.8299H50.2402V30.6799Z" fill="#003874"/>
<path d="M61.3105 30.6799V31.7299H63.4905V39.8399H64.6305V31.7299H66.8005V30.6799H61.3105Z" fill="#003874"/>
<path d="M67.8203 30.6799V39.8399H72.7403V38.7899H68.9603V35.3299H72.6303V34.2899H68.9603V31.7299H72.7403V30.6799H67.8203Z" fill="#003874"/>
<path d="M80.93 32.43C80.28 31.85 79.38 31.53 78.51 31.53C76.46 31.53 74.89 33.24 74.89 35.27C74.89 37.3 76.44 38.98 78.48 38.98C79.38 38.98 80.24 38.64 80.92 38.04V39.39C80.22 39.8 79.32 40.03 78.52 40.03C75.91 40.03 73.75 37.95 73.75 35.31C73.75 32.67 75.92 30.49 78.62 30.49C79.42 30.49 80.23 30.68 80.93 31.11V32.43V32.43Z" fill="#003874"/>
<path d="M87.8203 30.6799V34.3699H83.4603V30.6799H82.3203V39.8399H83.4603V35.4399H87.8203V39.8399H88.9603V30.6799H87.8203Z" fill="#003874"/>
<path d="M90.6191 39.84H91.7591V33.01L98.6291 40.21V30.68H97.4891V37.44L90.6191 30.24V39.84Z" fill="#003874"/>
<path d="M108.19 35.26C108.19 33.24 106.69 31.56 104.54 31.56C102.39 31.56 100.89 33.25 100.89 35.26C100.89 37.27 102.56 38.96 104.54 38.96C106.52 38.96 108.19 37.34 108.19 35.26ZM109.33 35.26C109.33 37.98 107.18 40.03 104.54 40.03C101.9 40.03 99.7402 37.98 99.7402 35.26C99.7402 32.54 101.91 30.49 104.54 30.49C107.17 30.49 109.33 32.64 109.33 35.26" fill="#003874"/>
<path d="M110.561 30.6799V39.8399H114.481V38.7899H111.701V30.6799H110.561Z" fill="#003874"/>
<path d="M123.161 35.26C123.161 33.24 121.651 31.56 119.511 31.56C117.371 31.56 115.851 33.25 115.851 35.26C115.851 37.27 117.531 38.96 119.511 38.96C121.491 38.96 123.161 37.34 123.161 35.26ZM124.301 35.26C124.301 37.98 122.151 40.03 119.511 40.03C116.871 40.03 114.711 37.98 114.711 35.26C114.711 32.54 116.881 30.49 119.511 30.49C122.141 30.49 124.301 32.64 124.301 35.26" fill="#003874"/>
<path d="M133.86 35.22V35.58C133.86 38.09 132.09 40.02 129.53 40.02C126.97 40.02 124.9 37.81 124.9 35.27C124.9 32.73 127.01 30.48 129.65 30.48C131.07 30.48 132.48 31.12 133.38 32.25L132.58 33.01C131.92 32.11 130.82 31.52 129.7 31.52C127.65 31.52 126.04 33.18 126.04 35.24C126.04 37.16 127.62 38.98 129.6 38.98C131.02 38.98 132.55 37.75 132.6 36.26H130.23V35.21H133.86V35.22Z" fill="#003874"/>
<path d="M139.97 30.6799L137.72 34.5899L135.48 30.6799H134.17L137.15 35.8499V39.8399H138.3V35.8499L141.28 30.6799H139.97Z" fill="#003874"/>
<path d="M18.3402 8.21005C18.5302 7.97005 18.6002 7.55005 18.6002 7.55005H7.24023C7.24023 7.55005 7.38023 8.02005 7.50023 8.21005H18.3402Z" fill="#A78236"/>
<path d="M17.6809 9.1701C17.8909 8.9801 18.1009 8.6001 18.1009 8.6001H7.71094C7.71094 8.6001 7.83094 8.8801 8.09094 9.1701H17.6809Z" fill="#A78236"/>
<path d="M16.8595 10.0401C17.1195 9.90012 17.3295 9.62012 17.3295 9.62012H8.43945C8.43945 9.62012 8.64945 9.85012 8.85945 10.0401H16.8595Z" fill="#A78236"/>
<path d="M15.8297 10.87C16.0797 10.77 16.3697 10.54 16.3697 10.54H9.42969C9.42969 10.54 9.42969 10.59 9.91969 10.87H15.8197H15.8297Z" fill="#A78236"/>
<path d="M10.7209 11.3799C10.7209 11.3799 11.4509 11.8099 12.8809 11.8099C14.3109 11.8099 15.2309 11.3799 15.2309 11.3799H10.7109H10.7209Z" fill="#A78236"/>
<path d="M10.6 12.3501C10.6 12.3501 11.47 12.4001 11.99 12.8001C12.48 13.2301 12.86 13.9301 12.86 13.9301C12.86 13.9301 13.16 13.2501 13.66 12.9001C14.15 12.5201 14.95 12.3601 14.95 12.3601H23.91L25.67 14.9701H17.62C17.62 14.9701 17.06 14.9901 16.21 15.4901C15.76 15.7401 15.43 16.1901 15.43 16.1901C15.43 16.1901 15.36 16.4001 15.26 16.5201C15.17 16.6401 15.1 16.7301 14.98 16.7801C14.86 16.8301 14.89 16.8001 14.89 16.8001H10.7C10.7 16.8001 10.53 16.7301 10.44 16.5901C10.35 16.4501 10.41 16.5001 10.32 16.3801C10.25 16.2601 10.08 15.9501 9.45 15.5301C8.79 15.1001 8.16 15.0601 8.16 15.0601H0L1.78 12.3501H10.6V12.3501Z" fill="#003874"/>
<path d="M4.26953 16.04V29.39C4.26953 29.39 4.31953 30.57 5.30953 32.17C6.29953 33.77 7.72953 34.5 7.72953 34.5L8.85953 32.74C8.85953 32.74 7.86953 32.15 7.11953 31.02C6.38953 29.89 6.38953 28.93 6.38953 28.93V16.04H4.26953V16.04Z" fill="#003874"/>
<path d="M19.4195 15.99V28.88C19.4195 28.88 19.2595 30.17 18.6495 31.09C18.0395 32.03 17.0195 32.78 17.0195 32.78L18.1095 34.52C18.1095 34.52 19.7595 33.32 20.5595 32.05C21.3595 30.78 21.5495 28.87 21.5495 28.87V15.99H19.4295H19.4195Z" fill="#003874"/>
<path d="M0.910156 16.04V29.45C0.910156 29.45 1.05016 31.52 2.34016 33.68C3.64016 35.84 5.99016 37.35 5.99016 37.35L7.10016 35.59C7.10016 35.59 5.59016 34.79 4.40016 32.95C3.17016 31.09 3.11016 29.39 3.11016 29.39V16.04H0.910156V16.04Z" fill="#003874"/>
<path d="M10.6009 17.45V31.61C10.6009 31.61 10.5509 31.66 10.5309 31.87C10.5009 32.08 10.3609 32.2299 10.3609 32.2299L5.63086 40.06H20.1209L15.3909 32.06L15.2509 31.7099L15.2009 31.33V17.4799H13.4409V31.85C13.4409 31.85 13.4409 32.06 13.5109 32.22C13.5509 32.39 13.6509 32.6399 13.6509 32.6399L16.5609 37.4399H9.18086L12.0509 32.6699C12.0509 32.6699 12.1409 32.51 12.2209 32.27C12.2709 32.06 12.2909 31.85 12.2909 31.85V17.45H10.6009V17.45Z" fill="#A78236"/>
<path d="M22.6902 15.99V29.16C22.6902 29.16 22.6702 30.85 21.4202 32.81C20.1702 34.76 18.7402 35.59 18.7402 35.59L19.8002 37.37C19.8002 37.37 21.9602 36.01 23.3302 33.84C24.6702 31.68 24.8302 29.16 24.8302 29.16V15.99H22.6902Z" fill="#003874"/>
<path d="M7.1707 7.17C7.1707 7.17 6.4507 3.2 9.3607 1.22C9.3607 1.22 10.6807 0 12.8207 0C15.1007 0 16.4207 1.2 16.4207 1.2C19.5907 3.53 18.6607 7.17 18.6607 7.17H7.1707Z" fill="#A78236"/>
</svg>
